0
SECTION
2
HEADER
9
$INSUNITS
70
4
9
$INSBASE
10
0.0
20
0.0
30
0.0
9
$EXTMIN
10
0
20
0
9
$EXTMAX
10
97
20
40
0
ENDSEC
0
SECTION
2
TABLES
0
TABLE
2
LTYPE
70
1
0
LTYPE
2
CONTINUOUS
70
64
3
Solid line
72
65
73
0
40
0.0
0
ENDTAB
0
TABLE
2
LAYER
70
1
0
LAYER
2
Layer1
70
64
62
7
6
CONTINUOUS
0
ENDTAB
0
TABLE
2
STYLE
70
0
0
ENDTAB
0
TABLE
2
VIEW
70
0
0
ENDTAB
0
ENDSEC
0
SECTION
2
BLOCKS
0
ENDSEC
0
SECTION
2
ENTITIES
0
POLYLINE
5
22c
8
Layer1
66
1
10
0.0
20
0.0
30
0.0
70
1
0
VERTEX
5
22d
8
Layer1
10
0.0000
20
0.0000
30
0.0
0
VERTEX
5
22e
8
Layer1
10
97.0000
20
0.0000
30
0.0
0
VERTEX
5
22f
8
Layer1
10
97.0000
20
40.0000
30
0.0
0
VERTEX
5
230
8
Layer1
10
0.0000
20
40.0000
30
0.0
0
VERTEX
5
231
8
Layer1
10
0.0000
20
0.0000
30
0.0
0
SEQEND
5
232
8
Layer1
0
POLYLINE
5
233
8
Layer1
66
1
10
0.0
20
0.0
30
0.0
70
1
0
VERTEX
5
234
8
Layer1
10
36.5000
20
36.5000
30
0.0
0
VERTEX
5
235
8
Layer1
10
22.5000
20
36.5000
30
0.0
0
VERTEX
5
236
8
Layer1
10
22.5000
20
22.5000
30
0.0
0
VERTEX
5
237
8
Layer1
10
36.5000
20
22.5000
30
0.0
0
VERTEX
5
238
8
Layer1
10
36.5000
20
36.5000
30
0.0
0
SEQEND
5
239
8
Layer1
0
POLYLINE
5
23a
8
Layer1
66
1
10
0.0
20
0.0
30
0.0
70
1
0
VERTEX
5
23b
8
Layer1
10
19.2500
20
35.7380
30
0.0
0
VERTEX
5
23c
8
Layer1
10
15.9500
20
35.7380
30
0.0
0
VERTEX
5
23d
8
Layer1
10
15.9500
20
21.7380
30
0.0
0
VERTEX
5
23e
8
Layer1
10
19.2500
20
21.7380
30
0.0
0
VERTEX
5
23f
8
Layer1
10
19.2500
20
35.7380
30
0.0
0
SEQEND
5
240
8
Layer1
0
POLYLINE
5
241
8
Layer1
66
1
10
0.0
20
0.0
30
0.0
70
1
0
VERTEX
5
242
8
Layer1
10
43.0500
20
35.7380
30
0.0
0
VERTEX
5
243
8
Layer1
10
39.7500
20
35.7380
30
0.0
0
VERTEX
5
244
8
Layer1
10
39.7500
20
21.7380
30
0.0
0
VERTEX
5
245
8
Layer1
10
43.0500
20
21.7380
30
0.0
0
VERTEX
5
246
8
Layer1
10
43.0500
20
35.7380
30
0.0
0
SEQEND
5
247
8
Layer1
0
POLYLINE
5
248
8
Layer1
66
1
10
0.0
20
0.0
30
0.0
70
1
0
VERTEX
5
249
8
Layer1
10
74.5000
20
36.5000
30
0.0
0
VERTEX
5
24a
8
Layer1
10
60.5000
20
36.5000
30
0.0
0
VERTEX
5
24b
8
Layer1
10
60.5000
20
22.5000
30
0.0
0
VERTEX
5
24c
8
Layer1
10
74.5000
20
22.5000
30
0.0
0
VERTEX
5
24d
8
Layer1
10
74.5000
20
36.5000
30
0.0
0
SEQEND
5
24e
8
Layer1
0
POLYLINE
5
24f
8
Layer1
66
1
10
0.0
20
0.0
30
0.0
70
1
0
VERTEX
5
250
8
Layer1
10
57.2500
20
35.7380
30
0.0
0
VERTEX
5
251
8
Layer1
10
53.9500
20
35.7380
30
0.0
0
VERTEX
5
252
8
Layer1
10
53.9500
20
21.7380
30
0.0
0
VERTEX
5
253
8
Layer1
10
57.2500
20
21.7380
30
0.0
0
VERTEX
5
254
8
Layer1
10
57.2500
20
35.7380
30
0.0
0
SEQEND
5
255
8
Layer1
0
POLYLINE
5
256
8
Layer1
66
1
10
0.0
20
0.0
30
0.0
70
1
0
VERTEX
5
257
8
Layer1
10
81.0500
20
35.7380
30
0.0
0
VERTEX
5
258
8
Layer1
10
77.7500
20
35.7380
30
0.0
0
VERTEX
5
259
8
Layer1
10
77.7500
20
21.7380
30
0.0
0
VERTEX
5
25a
8
Layer1
10
81.0500
20
21.7380
30
0.0
0
VERTEX
5
25b
8
Layer1
10
81.0500
20
35.7380
30
0.0
0
SEQEND
5
25c
8
Layer1
0
POLYLINE
5
25d
8
Layer1
66
1
10
0.0
20
0.0
30
0.0
70
1
0
VERTEX
5
25e
8
Layer1
10
17.5000
20
17.5000
30
0.0
0
VERTEX
5
25f
8
Layer1
10
3.5000
20
17.5000
30
0.0
0
VERTEX
5
260
8
Layer1
10
3.5000
20
3.5000
30
0.0
0
VERTEX
5
261
8
Layer1
10
17.5000
20
3.5000
30
0.0
0
VERTEX
5
262
8
Layer1
10
17.5000
20
17.5000
30
0.0
0
SEQEND
5
263
8
Layer1
0
POLYLINE
5
264
8
Layer1
66
1
10
0.0
20
0.0
30
0.0
70
1
0
VERTEX
5
265
8
Layer1
10
36.5000
20
17.5000
30
0.0
0
VERTEX
5
266
8
Layer1
10
22.5000
20
17.5000
30
0.0
0
VERTEX
5
267
8
Layer1
10
22.5000
20
3.5000
30
0.0
0
VERTEX
5
268
8
Layer1
10
36.5000
20
3.5000
30
0.0
0
VERTEX
5
269
8
Layer1
10
36.5000
20
17.5000
30
0.0
0
SEQEND
5
26a
8
Layer1
0
POLYLINE
5
26b
8
Layer1
66
1
10
0.0
20
0.0
30
0.0
70
1
0
VERTEX
5
26c
8
Layer1
10
55.5000
20
17.5000
30
0.0
0
VERTEX
5
26d
8
Layer1
10
41.5000
20
17.5000
30
0.0
0
VERTEX
5
26e
8
Layer1
10
41.5000
20
3.5000
30
0.0
0
VERTEX
5
26f
8
Layer1
10
55.5000
20
3.5000
30
0.0
0
VERTEX
5
270
8
Layer1
10
55.5000
20
17.5000
30
0.0
0
SEQEND
5
271
8
Layer1
0
POLYLINE
5
272
8
Layer1
66
1
10
0.0
20
0.0
30
0.0
70
1
0
VERTEX
5
273
8
Layer1
10
74.5000
20
17.5000
30
0.0
0
VERTEX
5
274
8
Layer1
10
60.5000
20
17.5000
30
0.0
0
VERTEX
5
275
8
Layer1
10
60.5000
20
3.5000
30
0.0
0
VERTEX
5
276
8
Layer1
10
74.5000
20
3.5000
30
0.0
0
VERTEX
5
277
8
Layer1
10
74.5000
20
17.5000
30
0.0
0
SEQEND
5
278
8
Layer1
0
POLYLINE
5
279
8
Layer1
66
1
10
0.0
20
0.0
30
0.0
70
1
0
VERTEX
5
27a
8
Layer1
10
93.5000
20
17.5000
30
0.0
0
VERTEX
5
27b
8
Layer1
10
79.5000
20
17.5000
30
0.0
0
VERTEX
5
27c
8
Layer1
10
79.5000
20
3.5000
30
0.0
0
VERTEX
5
27d
8
Layer1
10
93.5000
20
3.5000
30
0.0
0
VERTEX
5
27e
8
Layer1
10
93.5000
20
17.5000
30
0.0
0
SEQEND
5
27f
8
Layer1
0
ENDSEC
0
EOF
