  0
SECTION
  2
HEADER
  9
$ACADVER
  1
AC1009
  9
$FILLMODE
 70
 0
  9
$SPLFRAME
 70
 1
  9
$EXTMIN
 10
0
 20
0
 30
0.0
  9
$EXTMAX
 10
1058.33
 20
1058.33
 30
0.0
  0
ENDSEC
  0
SECTION
  2
TABLES
  0
TABLE
  2
LAYER
 70
1
  0
LAYER
  2
0
 70
     0
 62
     7
  6
CONTINUOUS
  0
ENDTAB
  0
ENDSEC
  0
SECTION
  2
ENTITIES
  0
LINE
  8
0
 62
     0
 10
0.0950846
 20
38.3575
 30
0.0
 11
95.3452
 21
38.3575
 31
0.0
  0
LINE
  8
0
 62
     0
 10
95.3452
 20
38.3575
 30
0.0
 11
95.3452
 21
0.257693
 31
0.0
  0
LINE
  8
0
 62
     0
 10
95.3452
 20
0.257693
 30
0.0
 11
0.0950846
 21
0.257693
 31
0.0
  0
LINE
  8
0
 62
     0
 10
0.0950846
 20
0.257693
 30
0.0
 11
0.0950846
 21
38.3575
 31
0.0
  0
LINE
  8
0
 62
     0
 10
2.61965
 20
16.7831
 30
0.0
 11
2.61965
 21
15.7827
 31
0.0
  0
LINE
  8
0
 62
     0
 10
2.61965
 20
15.7827
 30
0.0
 11
1.81901
 21
15.7827
 31
0.0
  0
LINE
  8
0
 62
     0
 10
1.81901
 20
15.7827
 30
0.0
 11
1.81901
 21
12.6835
 31
0.0
  0
LINE
  8
0
 62
     0
 10
1.81901
 20
12.6835
 30
0.0
 11
2.61965
 21
12.6835
 31
0.0
  0
LINE
  8
0
 62
     0
 10
2.61965
 20
12.6835
 30
0.0
 11
2.61965
 21
6.88329
 31
0.0
  0
LINE
  8
0
 62
     0
 10
2.61965
 20
6.88329
 30
0.0
 11
1.81901
 21
6.88329
 31
0.0
  0
LINE
  8
0
 62
     0
 10
1.81901
 20
6.88329
 30
0.0
 11
1.81901
 21
3.78273
 31
0.0
  0
LINE
  8
0
 62
     0
 10
1.81901
 20
3.78273
 30
0.0
 11
2.61965
 21
3.78273
 31
0.0
  0
LINE
  8
0
 62
     0
 10
2.61965
 20
3.78273
 30
0.0
 11
2.61965
 21
2.78364
 31
0.0
  0
LINE
  8
0
 62
     0
 10
2.61965
 20
2.78364
 30
0.0
 11
16.6192
 21
2.78364
 31
0.0
  0
LINE
  8
0
 62
     0
 10
16.6192
 20
2.78364
 30
0.0
 11
16.6192
 21
3.78273
 31
0.0
  0
LINE
  8
0
 62
     0
 10
16.6192
 20
3.78273
 30
0.0
 11
17.4198
 21
3.78273
 31
0.0
  0
LINE
  8
0
 62
     0
 10
17.4198
 20
3.78273
 30
0.0
 11
17.4198
 21
6.88329
 31
0.0
  0
LINE
  8
0
 62
     0
 10
17.4198
 20
6.88329
 30
0.0
 11
16.6192
 21
6.88329
 31
0.0
  0
LINE
  8
0
 62
     0
 10
16.6192
 20
6.88329
 30
0.0
 11
16.6192
 21
12.6835
 31
0.0
  0
LINE
  8
0
 62
     0
 10
16.6192
 20
12.6835
 30
0.0
 11
17.4198
 21
12.6835
 31
0.0
  0
LINE
  8
0
 62
     0
 10
17.4198
 20
12.6835
 30
0.0
 11
17.4198
 21
15.7827
 31
0.0
  0
LINE
  8
0
 62
     0
 10
17.4198
 20
15.7827
 30
0.0
 11
16.6192
 21
15.7827
 31
0.0
  0
LINE
  8
0
 62
     0
 10
16.6192
 20
15.7827
 30
0.0
 11
16.6192
 21
16.7831
 31
0.0
  0
LINE
  8
0
 62
     0
 10
16.6192
 20
16.7831
 30
0.0
 11
2.61965
 21
16.7831
 31
0.0
  0
LINE
  8
0
 62
     0
 10
21.6697
 20
16.7831
 30
0.0
 11
21.6697
 21
15.7827
 31
0.0
  0
LINE
  8
0
 62
     0
 10
21.6697
 20
15.7827
 30
0.0
 11
20.869
 21
15.7827
 31
0.0
  0
LINE
  8
0
 62
     0
 10
20.869
 20
15.7827
 30
0.0
 11
20.869
 21
12.6835
 31
0.0
  0
LINE
  8
0
 62
     0
 10
20.869
 20
12.6835
 30
0.0
 11
21.6697
 21
12.6835
 31
0.0
  0
LINE
  8
0
 62
     0
 10
21.6697
 20
12.6835
 30
0.0
 11
21.6697
 21
6.88329
 31
0.0
  0
LINE
  8
0
 62
     0
 10
21.6697
 20
6.88329
 30
0.0
 11
20.869
 21
6.88329
 31
0.0
  0
LINE
  8
0
 62
     0
 10
20.869
 20
6.88329
 30
0.0
 11
20.869
 21
3.78273
 31
0.0
  0
LINE
  8
0
 62
     0
 10
20.869
 20
3.78273
 30
0.0
 11
21.6697
 21
3.78273
 31
0.0
  0
LINE
  8
0
 62
     0
 10
21.6697
 20
3.78273
 30
0.0
 11
21.6697
 21
2.78364
 31
0.0
  0
LINE
  8
0
 62
     0
 10
21.6697
 20
2.78364
 30
0.0
 11
35.669
 21
2.78364
 31
0.0
  0
LINE
  8
0
 62
     0
 10
35.669
 20
2.78364
 30
0.0
 11
35.669
 21
3.78273
 31
0.0
  0
LINE
  8
0
 62
     0
 10
35.669
 20
3.78273
 30
0.0
 11
36.4698
 21
3.78273
 31
0.0
  0
LINE
  8
0
 62
     0
 10
36.4698
 20
3.78273
 30
0.0
 11
36.4698
 21
6.88329
 31
0.0
  0
LINE
  8
0
 62
     0
 10
36.4698
 20
6.88329
 30
0.0
 11
35.669
 21
6.88329
 31
0.0
  0
LINE
  8
0
 62
     0
 10
35.669
 20
6.88329
 30
0.0
 11
35.669
 21
12.6835
 31
0.0
  0
LINE
  8
0
 62
     0
 10
35.669
 20
12.6835
 30
0.0
 11
36.4698
 21
12.6835
 31
0.0
  0
LINE
  8
0
 62
     0
 10
36.4698
 20
12.6835
 30
0.0
 11
36.4698
 21
15.7827
 31
0.0
  0
LINE
  8
0
 62
     0
 10
36.4698
 20
15.7827
 30
0.0
 11
35.669
 21
15.7827
 31
0.0
  0
LINE
  8
0
 62
     0
 10
35.669
 20
15.7827
 30
0.0
 11
35.669
 21
16.7831
 31
0.0
  0
LINE
  8
0
 62
     0
 10
35.669
 20
16.7831
 30
0.0
 11
21.6697
 21
16.7831
 31
0.0
  0
LINE
  8
0
 62
     0
 10
40.7197
 20
16.7831
 30
0.0
 11
40.7197
 21
15.7827
 31
0.0
  0
LINE
  8
0
 62
     0
 10
40.7197
 20
15.7827
 30
0.0
 11
39.9189
 21
15.7827
 31
0.0
  0
LINE
  8
0
 62
     0
 10
39.9189
 20
15.7827
 30
0.0
 11
39.9189
 21
12.6835
 31
0.0
  0
LINE
  8
0
 62
     0
 10
39.9189
 20
12.6835
 30
0.0
 11
40.7197
 21
12.6835
 31
0.0
  0
LINE
  8
0
 62
     0
 10
40.7197
 20
12.6835
 30
0.0
 11
40.7197
 21
6.88329
 31
0.0
  0
LINE
  8
0
 62
     0
 10
40.7197
 20
6.88329
 30
0.0
 11
39.9189
 21
6.88329
 31
0.0
  0
LINE
  8
0
 62
     0
 10
39.9189
 20
6.88329
 30
0.0
 11
39.9189
 21
3.78273
 31
0.0
  0
LINE
  8
0
 62
     0
 10
39.9189
 20
3.78273
 30
0.0
 11
40.7197
 21
3.78273
 31
0.0
  0
LINE
  8
0
 62
     0
 10
40.7197
 20
3.78273
 30
0.0
 11
40.7197
 21
2.78364
 31
0.0
  0
LINE
  8
0
 62
     0
 10
40.7197
 20
2.78364
 30
0.0
 11
54.719
 21
2.78364
 31
0.0
  0
LINE
  8
0
 62
     0
 10
54.719
 20
2.78364
 30
0.0
 11
54.719
 21
3.78273
 31
0.0
  0
LINE
  8
0
 62
     0
 10
54.719
 20
3.78273
 30
0.0
 11
55.5198
 21
3.78273
 31
0.0
  0
LINE
  8
0
 62
     0
 10
55.5198
 20
3.78273
 30
0.0
 11
55.5198
 21
6.88329
 31
0.0
  0
LINE
  8
0
 62
     0
 10
55.5198
 20
6.88329
 30
0.0
 11
54.719
 21
6.88329
 31
0.0
  0
LINE
  8
0
 62
     0
 10
54.719
 20
6.88329
 30
0.0
 11
54.719
 21
12.6835
 31
0.0
  0
LINE
  8
0
 62
     0
 10
54.719
 20
12.6835
 30
0.0
 11
55.5198
 21
12.6835
 31
0.0
  0
LINE
  8
0
 62
     0
 10
55.5198
 20
12.6835
 30
0.0
 11
55.5198
 21
15.7827
 31
0.0
  0
LINE
  8
0
 62
     0
 10
55.5198
 20
15.7827
 30
0.0
 11
54.719
 21
15.7827
 31
0.0
  0
LINE
  8
0
 62
     0
 10
54.719
 20
15.7827
 30
0.0
 11
54.719
 21
16.7831
 31
0.0
  0
LINE
  8
0
 62
     0
 10
54.719
 20
16.7831
 30
0.0
 11
40.7197
 21
16.7831
 31
0.0
  0
LINE
  8
0
 62
     0
 10
59.7697
 20
16.7831
 30
0.0
 11
59.7697
 21
15.7827
 31
0.0
  0
LINE
  8
0
 62
     0
 10
59.7697
 20
15.7827
 30
0.0
 11
58.9689
 21
15.7827
 31
0.0
  0
LINE
  8
0
 62
     0
 10
58.9689
 20
15.7827
 30
0.0
 11
58.9689
 21
12.6835
 31
0.0
  0
LINE
  8
0
 62
     0
 10
58.9689
 20
12.6835
 30
0.0
 11
59.7697
 21
12.6835
 31
0.0
  0
LINE
  8
0
 62
     0
 10
59.7697
 20
12.6835
 30
0.0
 11
59.7697
 21
6.88329
 31
0.0
  0
LINE
  8
0
 62
     0
 10
59.7697
 20
6.88329
 30
0.0
 11
58.9689
 21
6.88329
 31
0.0
  0
LINE
  8
0
 62
     0
 10
58.9689
 20
6.88329
 30
0.0
 11
58.9689
 21
3.78273
 31
0.0
  0
LINE
  8
0
 62
     0
 10
58.9689
 20
3.78273
 30
0.0
 11
59.7697
 21
3.78273
 31
0.0
  0
LINE
  8
0
 62
     0
 10
59.7697
 20
3.78273
 30
0.0
 11
59.7697
 21
2.78364
 31
0.0
  0
LINE
  8
0
 62
     0
 10
59.7697
 20
2.78364
 30
0.0
 11
73.769
 21
2.78364
 31
0.0
  0
LINE
  8
0
 62
     0
 10
73.769
 20
2.78364
 30
0.0
 11
73.769
 21
3.78273
 31
0.0
  0
LINE
  8
0
 62
     0
 10
73.769
 20
3.78273
 30
0.0
 11
74.5698
 21
3.78273
 31
0.0
  0
LINE
  8
0
 62
     0
 10
74.5698
 20
3.78273
 30
0.0
 11
74.5698
 21
6.88329
 31
0.0
  0
LINE
  8
0
 62
     0
 10
74.5698
 20
6.88329
 30
0.0
 11
73.769
 21
6.88329
 31
0.0
  0
LINE
  8
0
 62
     0
 10
73.769
 20
6.88329
 30
0.0
 11
73.769
 21
12.6835
 31
0.0
  0
LINE
  8
0
 62
     0
 10
73.769
 20
12.6835
 30
0.0
 11
74.5698
 21
12.6835
 31
0.0
  0
LINE
  8
0
 62
     0
 10
74.5698
 20
12.6835
 30
0.0
 11
74.5698
 21
15.7827
 31
0.0
  0
LINE
  8
0
 62
     0
 10
74.5698
 20
15.7827
 30
0.0
 11
73.769
 21
15.7827
 31
0.0
  0
LINE
  8
0
 62
     0
 10
73.769
 20
15.7827
 30
0.0
 11
73.769
 21
16.7831
 31
0.0
  0
LINE
  8
0
 62
     0
 10
73.769
 20
16.7831
 30
0.0
 11
59.7697
 21
16.7831
 31
0.0
  0
LINE
  8
0
 62
     0
 10
78.8197
 20
16.7831
 30
0.0
 11
78.8197
 21
15.7827
 31
0.0
  0
LINE
  8
0
 62
     0
 10
78.8197
 20
15.7827
 30
0.0
 11
78.0189
 21
15.7827
 31
0.0
  0
LINE
  8
0
 62
     0
 10
78.0189
 20
15.7827
 30
0.0
 11
78.0189
 21
12.6835
 31
0.0
  0
LINE
  8
0
 62
     0
 10
78.0189
 20
12.6835
 30
0.0
 11
78.8197
 21
12.6835
 31
0.0
  0
LINE
  8
0
 62
     0
 10
78.8197
 20
12.6835
 30
0.0
 11
78.8197
 21
6.88329
 31
0.0
  0
LINE
  8
0
 62
     0
 10
78.8197
 20
6.88329
 30
0.0
 11
78.0189
 21
6.88329
 31
0.0
  0
LINE
  8
0
 62
     0
 10
78.0189
 20
6.88329
 30
0.0
 11
78.0189
 21
3.78273
 31
0.0
  0
LINE
  8
0
 62
     0
 10
78.0189
 20
3.78273
 30
0.0
 11
78.8197
 21
3.78273
 31
0.0
  0
LINE
  8
0
 62
     0
 10
78.8197
 20
3.78273
 30
0.0
 11
78.8197
 21
2.78364
 31
0.0
  0
LINE
  8
0
 62
     0
 10
78.8197
 20
2.78364
 30
0.0
 11
92.819
 21
2.78364
 31
0.0
  0
LINE
  8
0
 62
     0
 10
92.819
 20
2.78364
 30
0.0
 11
92.819
 21
3.78273
 31
0.0
  0
LINE
  8
0
 62
     0
 10
92.819
 20
3.78273
 30
0.0
 11
93.6184
 21
3.78273
 31
0.0
  0
LINE
  8
0
 62
     0
 10
93.6184
 20
3.78273
 30
0.0
 11
93.6184
 21
6.88329
 31
0.0
  0
LINE
  8
0
 62
     0
 10
93.6184
 20
6.88329
 30
0.0
 11
92.819
 21
6.88329
 31
0.0
  0
LINE
  8
0
 62
     0
 10
92.819
 20
6.88329
 30
0.0
 11
92.819
 21
12.6835
 31
0.0
  0
LINE
  8
0
 62
     0
 10
92.819
 20
12.6835
 30
0.0
 11
93.6184
 21
12.6835
 31
0.0
  0
LINE
  8
0
 62
     0
 10
93.6184
 20
12.6835
 30
0.0
 11
93.6184
 21
15.7827
 31
0.0
  0
LINE
  8
0
 62
     0
 10
93.6184
 20
15.7827
 30
0.0
 11
92.819
 21
15.7827
 31
0.0
  0
LINE
  8
0
 62
     0
 10
92.819
 20
15.7827
 30
0.0
 11
92.819
 21
16.7831
 31
0.0
  0
LINE
  8
0
 62
     0
 10
92.819
 20
16.7831
 30
0.0
 11
78.8197
 21
16.7831
 31
0.0
  0
LINE
  8
0
 62
     0
 10
21.6697
 20
35.833
 30
0.0
 11
21.6697
 21
34.8327
 31
0.0
  0
LINE
  8
0
 62
     0
 10
21.6697
 20
34.8327
 30
0.0
 11
20.869
 21
34.8327
 31
0.0
  0
LINE
  8
0
 62
     0
 10
20.869
 20
34.8327
 30
0.0
 11
20.869
 21
31.7335
 31
0.0
  0
LINE
  8
0
 62
     0
 10
20.869
 20
31.7335
 30
0.0
 11
21.6697
 21
31.7335
 31
0.0
  0
LINE
  8
0
 62
     0
 10
21.6697
 20
31.7335
 30
0.0
 11
21.6697
 21
31.1326
 31
0.0
  0
LINE
  8
0
 62
     0
 10
21.6697
 20
31.1326
 30
0.0
 11
20.1442
 21
31.1326
 31
0.0
  0
LINE
  8
0
 62
     0
 10
20.1442
 20
31.1326
 30
0.0
 11
20.1442
 21
34.3628
 31
0.0
  0
LINE
  8
0
 62
     0
 10
20.1442
 20
34.3628
 30
0.0
 11
18.4188
 21
34.3628
 31
0.0
  0
LINE
  8
0
 62
     0
 10
18.4188
 20
34.3628
 30
0.0
 11
18.4188
 21
35.2848
 31
0.0
  0
LINE
  8
0
 62
     0
 10
18.4188
 20
35.2848
 30
0.0
 11
15.1198
 21
35.2848
 31
0.0
  0
LINE
  8
0
 62
     0
 10
15.1198
 20
35.2848
 30
0.0
 11
15.1198
 21
34.3628
 31
0.0
  0
LINE
  8
0
 62
     0
 10
15.1198
 20
34.3628
 30
0.0
 11
13.3945
 21
34.3628
 31
0.0
  0
LINE
  8
0
 62
     0
 10
13.3945
 20
34.3628
 30
0.0
 11
13.3945
 21
31.1326
 31
0.0
  0
LINE
  8
0
 62
     0
 10
13.3945
 20
31.1326
 30
0.0
 11
12.5691
 21
31.1326
 31
0.0
  0
LINE
  8
0
 62
     0
 10
12.5691
 20
31.1326
 30
0.0
 11
12.5691
 21
28.3338
 31
0.0
  0
LINE
  8
0
 62
     0
 10
12.5691
 20
28.3338
 30
0.0
 11
13.3945
 21
28.3338
 31
0.0
  0
LINE
  8
0
 62
     0
 10
13.3945
 20
28.3338
 30
0.0
 11
13.3945
 21
22.0638
 31
0.0
  0
LINE
  8
0
 62
     0
 10
13.3945
 20
22.0638
 30
0.0
 11
15.1198
 21
22.0638
 31
0.0
  0
LINE
  8
0
 62
     0
 10
15.1198
 20
22.0638
 30
0.0
 11
15.1198
 21
21.0826
 31
0.0
  0
LINE
  8
0
 62
     0
 10
15.1198
 20
21.0826
 30
0.0
 11
18.4188
 21
21.0826
 31
0.0
  0
LINE
  8
0
 62
     0
 10
18.4188
 20
21.0826
 30
0.0
 11
18.4188
 21
22.0638
 31
0.0
  0
LINE
  8
0
 62
     0
 10
18.4188
 20
22.0638
 30
0.0
 11
20.1442
 21
22.0638
 31
0.0
  0
LINE
  8
0
 62
     0
 10
20.1442
 20
22.0638
 30
0.0
 11
20.1442
 21
26.5327
 31
0.0
  0
LINE
  8
0
 62
     0
 10
20.1442
 20
26.5327
 30
0.0
 11
21.6697
 21
26.5327
 31
0.0
  0
LINE
  8
0
 62
     0
 10
21.6697
 20
26.5327
 30
0.0
 11
21.6697
 21
25.9333
 31
0.0
  0
LINE
  8
0
 62
     0
 10
21.6697
 20
25.9333
 30
0.0
 11
20.869
 21
25.9333
 31
0.0
  0
LINE
  8
0
 62
     0
 10
20.869
 20
25.9333
 30
0.0
 11
20.869
 21
22.8327
 31
0.0
  0
LINE
  8
0
 62
     0
 10
20.869
 20
22.8327
 30
0.0
 11
21.6697
 21
22.8327
 31
0.0
  0
LINE
  8
0
 62
     0
 10
21.6697
 20
22.8327
 30
0.0
 11
21.6697
 21
21.8336
 31
0.0
  0
LINE
  8
0
 62
     0
 10
21.6697
 20
21.8336
 30
0.0
 11
35.669
 21
21.8336
 31
0.0
  0
LINE
  8
0
 62
     0
 10
35.669
 20
21.8336
 30
0.0
 11
35.669
 21
22.8327
 31
0.0
  0
LINE
  8
0
 62
     0
 10
35.669
 20
22.8327
 30
0.0
 11
36.4698
 21
22.8327
 31
0.0
  0
LINE
  8
0
 62
     0
 10
36.4698
 20
22.8327
 30
0.0
 11
36.4698
 21
25.9333
 31
0.0
  0
LINE
  8
0
 62
     0
 10
36.4698
 20
25.9333
 30
0.0
 11
35.669
 21
25.9333
 31
0.0
  0
LINE
  8
0
 62
     0
 10
35.669
 20
25.9333
 30
0.0
 11
35.669
 21
26.5327
 31
0.0
  0
LINE
  8
0
 62
     0
 10
35.669
 20
26.5327
 30
0.0
 11
37.1948
 21
26.5327
 31
0.0
  0
LINE
  8
0
 62
     0
 10
37.1948
 20
26.5327
 30
0.0
 11
37.1948
 21
22.0638
 31
0.0
  0
LINE
  8
0
 62
     0
 10
37.1948
 20
22.0638
 30
0.0
 11
38.9199
 21
22.0638
 31
0.0
  0
LINE
  8
0
 62
     0
 10
38.9199
 20
22.0638
 30
0.0
 11
38.9199
 21
21.0826
 31
0.0
  0
LINE
  8
0
 62
     0
 10
38.9199
 20
21.0826
 30
0.0
 11
42.219
 21
21.0826
 31
0.0
  0
LINE
  8
0
 62
     0
 10
42.219
 20
21.0826
 30
0.0
 11
42.219
 21
22.0638
 31
0.0
  0
LINE
  8
0
 62
     0
 10
42.219
 20
22.0638
 30
0.0
 11
43.9441
 21
22.0638
 31
0.0
  0
LINE
  8
0
 62
     0
 10
43.9441
 20
22.0638
 30
0.0
 11
43.9441
 21
28.3338
 31
0.0
  0
LINE
  8
0
 62
     0
 10
43.9441
 20
28.3338
 30
0.0
 11
44.7696
 21
28.3338
 31
0.0
  0
LINE
  8
0
 62
     0
 10
44.7696
 20
28.3338
 30
0.0
 11
44.7696
 21
31.1326
 31
0.0
  0
LINE
  8
0
 62
     0
 10
44.7696
 20
31.1326
 30
0.0
 11
43.9441
 21
31.1326
 31
0.0
  0
LINE
  8
0
 62
     0
 10
43.9441
 20
31.1326
 30
0.0
 11
43.9441
 21
34.3628
 31
0.0
  0
LINE
  8
0
 62
     0
 10
43.9441
 20
34.3628
 30
0.0
 11
42.219
 21
34.3628
 31
0.0
  0
LINE
  8
0
 62
     0
 10
42.219
 20
34.3628
 30
0.0
 11
42.219
 21
35.2848
 31
0.0
  0
LINE
  8
0
 62
     0
 10
42.219
 20
35.2848
 30
0.0
 11
38.9199
 21
35.2848
 31
0.0
  0
LINE
  8
0
 62
     0
 10
38.9199
 20
35.2848
 30
0.0
 11
38.9199
 21
34.3628
 31
0.0
  0
LINE
  8
0
 62
     0
 10
38.9199
 20
34.3628
 30
0.0
 11
37.1948
 21
34.3628
 31
0.0
  0
LINE
  8
0
 62
     0
 10
37.1948
 20
34.3628
 30
0.0
 11
37.1948
 21
31.1326
 31
0.0
  0
LINE
  8
0
 62
     0
 10
37.1948
 20
31.1326
 30
0.0
 11
35.669
 21
31.1326
 31
0.0
  0
LINE
  8
0
 62
     0
 10
35.669
 20
31.1326
 30
0.0
 11
35.669
 21
31.7335
 31
0.0
  0
LINE
  8
0
 62
     0
 10
35.669
 20
31.7335
 30
0.0
 11
36.4698
 21
31.7335
 31
0.0
  0
LINE
  8
0
 62
     0
 10
36.4698
 20
31.7335
 30
0.0
 11
36.4698
 21
34.8327
 31
0.0
  0
LINE
  8
0
 62
     0
 10
36.4698
 20
34.8327
 30
0.0
 11
35.669
 21
34.8327
 31
0.0
  0
LINE
  8
0
 62
     0
 10
35.669
 20
34.8327
 30
0.0
 11
35.669
 21
35.833
 31
0.0
  0
LINE
  8
0
 62
     0
 10
35.669
 20
35.833
 30
0.0
 11
21.6697
 21
35.833
 31
0.0
  0
LINE
  8
0
 62
     0
 10
59.7697
 20
35.833
 30
0.0
 11
59.7697
 21
34.8327
 31
0.0
  0
LINE
  8
0
 62
     0
 10
59.7697
 20
34.8327
 30
0.0
 11
58.9689
 21
34.8327
 31
0.0
  0
LINE
  8
0
 62
     0
 10
58.9689
 20
34.8327
 30
0.0
 11
58.9689
 21
31.7335
 31
0.0
  0
LINE
  8
0
 62
     0
 10
58.9689
 20
31.7335
 30
0.0
 11
59.7697
 21
31.7335
 31
0.0
  0
LINE
  8
0
 62
     0
 10
59.7697
 20
31.7335
 30
0.0
 11
59.7697
 21
31.1326
 31
0.0
  0
LINE
  8
0
 62
     0
 10
59.7697
 20
31.1326
 30
0.0
 11
58.2443
 21
31.1326
 31
0.0
  0
LINE
  8
0
 62
     0
 10
58.2443
 20
31.1326
 30
0.0
 11
58.2443
 21
34.3628
 31
0.0
  0
LINE
  8
0
 62
     0
 10
58.2443
 20
34.3628
 30
0.0
 11
56.5189
 21
34.3628
 31
0.0
  0
LINE
  8
0
 62
     0
 10
56.5189
 20
34.3628
 30
0.0
 11
56.5189
 21
35.2848
 31
0.0
  0
LINE
  8
0
 62
     0
 10
56.5189
 20
35.2848
 30
0.0
 11
53.2197
 21
35.2848
 31
0.0
  0
LINE
  8
0
 62
     0
 10
53.2197
 20
35.2848
 30
0.0
 11
53.2197
 21
34.3628
 31
0.0
  0
LINE
  8
0
 62
     0
 10
53.2197
 20
34.3628
 30
0.0
 11
51.4946
 21
34.3628
 31
0.0
  0
LINE
  8
0
 62
     0
 10
51.4946
 20
34.3628
 30
0.0
 11
51.4946
 21
31.1326
 31
0.0
  0
LINE
  8
0
 62
     0
 10
51.4946
 20
31.1326
 30
0.0
 11
50.6691
 21
31.1326
 31
0.0
  0
LINE
  8
0
 62
     0
 10
50.6691
 20
31.1326
 30
0.0
 11
50.6691
 21
28.3338
 31
0.0
  0
LINE
  8
0
 62
     0
 10
50.6691
 20
28.3338
 30
0.0
 11
51.4946
 21
28.3338
 31
0.0
  0
LINE
  8
0
 62
     0
 10
51.4946
 20
28.3338
 30
0.0
 11
51.4946
 21
22.0638
 31
0.0
  0
LINE
  8
0
 62
     0
 10
51.4946
 20
22.0638
 30
0.0
 11
53.2197
 21
22.0638
 31
0.0
  0
LINE
  8
0
 62
     0
 10
53.2197
 20
22.0638
 30
0.0
 11
53.2197
 21
21.0826
 31
0.0
  0
LINE
  8
0
 62
     0
 10
53.2197
 20
21.0826
 30
0.0
 11
56.5189
 21
21.0826
 31
0.0
  0
LINE
  8
0
 62
     0
 10
56.5189
 20
21.0826
 30
0.0
 11
56.5189
 21
22.0638
 31
0.0
  0
LINE
  8
0
 62
     0
 10
56.5189
 20
22.0638
 30
0.0
 11
58.2443
 21
22.0638
 31
0.0
  0
LINE
  8
0
 62
     0
 10
58.2443
 20
22.0638
 30
0.0
 11
58.2443
 21
26.5327
 31
0.0
  0
LINE
  8
0
 62
     0
 10
58.2443
 20
26.5327
 30
0.0
 11
59.7697
 21
26.5327
 31
0.0
  0
LINE
  8
0
 62
     0
 10
59.7697
 20
26.5327
 30
0.0
 11
59.7697
 21
25.9333
 31
0.0
  0
LINE
  8
0
 62
     0
 10
59.7697
 20
25.9333
 30
0.0
 11
58.9689
 21
25.9333
 31
0.0
  0
LINE
  8
0
 62
     0
 10
58.9689
 20
25.9333
 30
0.0
 11
58.9689
 21
22.8327
 31
0.0
  0
LINE
  8
0
 62
     0
 10
58.9689
 20
22.8327
 30
0.0
 11
59.7697
 21
22.8327
 31
0.0
  0
LINE
  8
0
 62
     0
 10
59.7697
 20
22.8327
 30
0.0
 11
59.7697
 21
21.8336
 31
0.0
  0
LINE
  8
0
 62
     0
 10
59.7697
 20
21.8336
 30
0.0
 11
73.769
 21
21.8336
 31
0.0
  0
LINE
  8
0
 62
     0
 10
73.769
 20
21.8336
 30
0.0
 11
73.769
 21
22.8327
 31
0.0
  0
LINE
  8
0
 62
     0
 10
73.769
 20
22.8327
 30
0.0
 11
74.5698
 21
22.8327
 31
0.0
  0
LINE
  8
0
 62
     0
 10
74.5698
 20
22.8327
 30
0.0
 11
74.5698
 21
25.9333
 31
0.0
  0
LINE
  8
0
 62
     0
 10
74.5698
 20
25.9333
 30
0.0
 11
73.769
 21
25.9333
 31
0.0
  0
LINE
  8
0
 62
     0
 10
73.769
 20
25.9333
 30
0.0
 11
73.769
 21
26.5327
 31
0.0
  0
LINE
  8
0
 62
     0
 10
73.769
 20
26.5327
 30
0.0
 11
75.2948
 21
26.5327
 31
0.0
  0
LINE
  8
0
 62
     0
 10
75.2948
 20
26.5327
 30
0.0
 11
75.2948
 21
22.0638
 31
0.0
  0
LINE
  8
0
 62
     0
 10
75.2948
 20
22.0638
 30
0.0
 11
77.0199
 21
22.0638
 31
0.0
  0
LINE
  8
0
 62
     0
 10
77.0199
 20
22.0638
 30
0.0
 11
77.0199
 21
21.0826
 31
0.0
  0
LINE
  8
0
 62
     0
 10
77.0199
 20
21.0826
 30
0.0
 11
80.319
 21
21.0826
 31
0.0
  0
LINE
  8
0
 62
     0
 10
80.319
 20
21.0826
 30
0.0
 11
80.319
 21
22.0638
 31
0.0
  0
LINE
  8
0
 62
     0
 10
80.319
 20
22.0638
 30
0.0
 11
82.0441
 21
22.0638
 31
0.0
  0
LINE
  8
0
 62
     0
 10
82.0441
 20
22.0638
 30
0.0
 11
82.0441
 21
28.3338
 31
0.0
  0
LINE
  8
0
 62
     0
 10
82.0441
 20
28.3338
 30
0.0
 11
82.8696
 21
28.3338
 31
0.0
  0
LINE
  8
0
 62
     0
 10
82.8696
 20
28.3338
 30
0.0
 11
82.8696
 21
31.1326
 31
0.0
  0
LINE
  8
0
 62
     0
 10
82.8696
 20
31.1326
 30
0.0
 11
82.0441
 21
31.1326
 31
0.0
  0
LINE
  8
0
 62
     0
 10
82.0441
 20
31.1326
 30
0.0
 11
82.0441
 21
34.3628
 31
0.0
  0
LINE
  8
0
 62
     0
 10
82.0441
 20
34.3628
 30
0.0
 11
80.319
 21
34.3628
 31
0.0
  0
LINE
  8
0
 62
     0
 10
80.319
 20
34.3628
 30
0.0
 11
80.319
 21
35.2848
 31
0.0
  0
LINE
  8
0
 62
     0
 10
80.319
 20
35.2848
 30
0.0
 11
77.0199
 21
35.2848
 31
0.0
  0
LINE
  8
0
 62
     0
 10
77.0199
 20
35.2848
 30
0.0
 11
77.0199
 21
34.3628
 31
0.0
  0
LINE
  8
0
 62
     0
 10
77.0199
 20
34.3628
 30
0.0
 11
75.2948
 21
34.3628
 31
0.0
  0
LINE
  8
0
 62
     0
 10
75.2948
 20
34.3628
 30
0.0
 11
75.2948
 21
31.1326
 31
0.0
  0
LINE
  8
0
 62
     0
 10
75.2948
 20
31.1326
 30
0.0
 11
73.769
 21
31.1326
 31
0.0
  0
LINE
  8
0
 62
     0
 10
73.769
 20
31.1326
 30
0.0
 11
73.769
 21
31.7335
 31
0.0
  0
LINE
  8
0
 62
     0
 10
73.769
 20
31.7335
 30
0.0
 11
74.5698
 21
31.7335
 31
0.0
  0
LINE
  8
0
 62
     0
 10
74.5698
 20
31.7335
 30
0.0
 11
74.5698
 21
34.8327
 31
0.0
  0
LINE
  8
0
 62
     0
 10
74.5698
 20
34.8327
 30
0.0
 11
73.769
 21
34.8327
 31
0.0
  0
LINE
  8
0
 62
     0
 10
73.769
 20
34.8327
 30
0.0
 11
73.769
 21
35.833
 31
0.0
  0
LINE
  8
0
 62
     0
 10
73.769
 20
35.833
 30
0.0
 11
59.7697
 21
35.833
 31
0.0
  0
ENDSEC
  0
EOF
