0
SECTION
2
HEADER
9
$INSUNITS
70
4
0
ENDSEC
0
SECTION
2
TABLES
0
TABLE
2
LTYPE
0
LTYPE
72
65
70
64
2
CONTINUOUS
3
______
73
0
40
0
0
ENDTAB
0
TABLE
2
LAYER
0
ENDTAB
0
ENDSEC
0
SECTION
2
ENTITIES
0
LINE
8
0
10
22.075
20
-2.525
11
35.075
21
-2.525
0
LINE
8
0
10
22.075
20
-16.525
11
35.075
21
-16.525
0
LINE
8
0
10
21.575
20
-3.025
11
21.575
21
-16.025
0
LINE
8
0
10
35.575
20
-3.025
11
35.575
21
-16.025
0
ARC
8
0
10
22.075
20
-3.025
40
0.5
50
90
51
180
0
ARC
8
0
10
35.075
20
-3.025
40
0.5
50
0
51
90
0
ARC
8
0
10
22.075
20
-16.025
40
0.5
50
180
51
270
0
ARC
8
0
10
35.075
20
-16.025
40
0.5
50
270
51
0
0
LINE
8
0
10
13.637
20
-3.525
11
19.637
21
-3.525
0
LINE
8
0
10
13.637
20
-18.525
11
19.637
21
-18.525
0
LINE
8
0
10
13.137
20
-4.025
11
13.137
21
-18.025
0
LINE
8
0
10
20.137
20
-4.025
11
20.137
21
-18.025
0
ARC
8
0
10
13.637
20
-4.025
40
0.5
50
90
51
180
0
ARC
8
0
10
19.637
20
-4.025
40
0.5
50
0
51
90
0
ARC
8
0
10
13.637
20
-18.025
40
0.5
50
180
51
270
0
ARC
8
0
10
19.637
20
-18.025
40
0.5
50
270
51
0
0
LINE
8
0
10
37.513
20
-3.525
11
43.513
21
-3.525
0
LINE
8
0
10
37.513
20
-18.525
11
43.513
21
-18.525
0
LINE
8
0
10
37.013
20
-4.025
11
37.013
21
-18.025
0
LINE
8
0
10
44.013
20
-4.025
11
44.013
21
-18.025
0
ARC
8
0
10
37.513
20
-4.025
40
0.5
50
90
51
180
0
ARC
8
0
10
43.513
20
-4.025
40
0.5
50
0
51
90
0
ARC
8
0
10
37.513
20
-18.025
40
0.5
50
180
51
270
0
ARC
8
0
10
43.513
20
-18.025
40
0.5
50
270
51
0
0
LINE
8
0
10
60.175
20
-2.525
11
73.175
21
-2.525
0
LINE
8
0
10
60.175
20
-16.525
11
73.175
21
-16.525
0
LINE
8
0
10
59.675
20
-3.025
11
59.675
21
-16.025
0
LINE
8
0
10
73.675
20
-3.025
11
73.675
21
-16.025
0
ARC
8
0
10
60.175
20
-3.025
40
0.5
50
90
51
180
0
ARC
8
0
10
73.175
20
-3.025
40
0.5
50
0
51
90
0
ARC
8
0
10
60.175
20
-16.025
40
0.5
50
180
51
270
0
ARC
8
0
10
73.175
20
-16.025
40
0.5
50
270
51
0
0
LINE
8
0
10
51.737
20
-3.525
11
57.737
21
-3.525
0
LINE
8
0
10
51.737
20
-18.525
11
57.737
21
-18.525
0
LINE
8
0
10
51.237
20
-4.025
11
51.237
21
-18.025
0
LINE
8
0
10
58.237
20
-4.025
11
58.237
21
-18.025
0
ARC
8
0
10
51.737
20
-4.025
40
0.5
50
90
51
180
0
ARC
8
0
10
57.737
20
-4.025
40
0.5
50
0
51
90
0
ARC
8
0
10
51.737
20
-18.025
40
0.5
50
180
51
270
0
ARC
8
0
10
57.737
20
-18.025
40
0.5
50
270
51
0
0
LINE
8
0
10
75.613
20
-3.525
11
81.613
21
-3.525
0
LINE
8
0
10
75.613
20
-18.525
11
81.613
21
-18.525
0
LINE
8
0
10
75.113
20
-4.025
11
75.113
21
-18.025
0
LINE
8
0
10
82.113
20
-4.025
11
82.113
21
-18.025
0
ARC
8
0
10
75.613
20
-4.025
40
0.5
50
90
51
180
0
ARC
8
0
10
81.613
20
-4.025
40
0.5
50
0
51
90
0
ARC
8
0
10
75.613
20
-18.025
40
0.5
50
180
51
270
0
ARC
8
0
10
81.613
20
-18.025
40
0.5
50
270
51
0
0
LINE
8
0
10
3.025
20
-21.575
11
16.025
21
-21.575
0
LINE
8
0
10
3.025
20
-35.575
11
16.025
21
-35.575
0
LINE
8
0
10
2.525
20
-22.075
11
2.525
21
-35.075
0
LINE
8
0
10
16.525
20
-22.075
11
16.525
21
-35.075
0
ARC
8
0
10
3.025
20
-22.075
40
0.5
50
90
51
180
0
ARC
8
0
10
16.025
20
-22.075
40
0.5
50
0
51
90
0
ARC
8
0
10
3.025
20
-35.075
40
0.5
50
180
51
270
0
ARC
8
0
10
16.025
20
-35.075
40
0.5
50
270
51
0
0
LINE
8
0
10
22.075
20
-21.575
11
35.075
21
-21.575
0
LINE
8
0
10
22.075
20
-35.575
11
35.075
21
-35.575
0
LINE
8
0
10
21.575
20
-22.075
11
21.575
21
-35.075
0
LINE
8
0
10
35.575
20
-22.075
11
35.575
21
-35.075
0
ARC
8
0
10
22.075
20
-22.075
40
0.5
50
90
51
180
0
ARC
8
0
10
35.075
20
-22.075
40
0.5
50
0
51
90
0
ARC
8
0
10
22.075
20
-35.075
40
0.5
50
180
51
270
0
ARC
8
0
10
35.075
20
-35.075
40
0.5
50
270
51
0
0
LINE
8
0
10
41.125
20
-21.575
11
54.125
21
-21.575
0
LINE
8
0
10
41.125
20
-35.575
11
54.125
21
-35.575
0
LINE
8
0
10
40.625
20
-22.075
11
40.625
21
-35.075
0
LINE
8
0
10
54.625
20
-22.075
11
54.625
21
-35.075
0
ARC
8
0
10
41.125
20
-22.075
40
0.5
50
90
51
180
0
ARC
8
0
10
54.125
20
-22.075
40
0.5
50
0
51
90
0
ARC
8
0
10
41.125
20
-35.075
40
0.5
50
180
51
270
0
ARC
8
0
10
54.125
20
-35.075
40
0.5
50
270
51
0
0
LINE
8
0
10
60.175
20
-21.575
11
73.175
21
-21.575
0
LINE
8
0
10
60.175
20
-35.575
11
73.175
21
-35.575
0
LINE
8
0
10
59.675
20
-22.075
11
59.675
21
-35.075
0
LINE
8
0
10
73.675
20
-22.075
11
73.675
21
-35.075
0
ARC
8
0
10
60.175
20
-22.075
40
0.5
50
90
51
180
0
ARC
8
0
10
73.175
20
-22.075
40
0.5
50
0
51
90
0
ARC
8
0
10
60.175
20
-35.075
40
0.5
50
180
51
270
0
ARC
8
0
10
73.175
20
-35.075
40
0.5
50
270
51
0
0
LINE
8
0
10
79.225
20
-21.575
11
92.225
21
-21.575
0
LINE
8
0
10
79.225
20
-35.575
11
92.225
21
-35.575
0
LINE
8
0
10
78.725
20
-22.075
11
78.725
21
-35.075
0
LINE
8
0
10
92.725
20
-22.075
11
92.725
21
-35.075
0
ARC
8
0
10
79.225
20
-22.075
40
0.5
50
90
51
180
0
ARC
8
0
10
92.225
20
-22.075
40
0.5
50
0
51
90
0
ARC
8
0
10
79.225
20
-35.075
40
0.5
50
180
51
270
0
ARC
8
0
10
92.225
20
-35.075
40
0.5
50
270
51
0
0
LINE
8
0
10
0
20
-38.1
11
95.25
21
-38.1
0
LINE
8
0
10
0
20
0
11
95.25
21
0
0
LINE
8
0
10
0
20
-38.1
11
0
21
0
0
LINE
8
0
10
95.25
20
-38.1
11
95.25
21
0
0
ENDSEC
0
EOF