<svg width="95.25mm" height="38.1mm" viewBox="0 0 95.25 38.1" xmlns="http://www.w3.org/2000/svg"><g id="svgGroup" stroke-linecap="round" fill-rule="evenodd" font-size="9pt" stroke="#000" stroke-width="0.25mm" fill="none" style="stroke:#000;stroke-width:0.25mm;fill:none"><path d="M 0 38.1 L 95.25 38.1 L 95.25 0 L 0 0 L 0 38.1 Z M 22.075 2.525 L 35.075 2.525 A 0.5 0.5 0 0 1 35.575 3.025 L 35.575 16.025 A 0.5 0.5 0 0 1 35.075 16.525 L 22.075 16.525 A 0.5 0.5 0 0 1 21.575 16.025 L 21.575 3.025 A 0.5 0.5 0 0 1 22.075 2.525 Z M 3.025 21.575 L 16.025 21.575 A 0.5 0.5 0 0 1 16.525 22.075 L 16.525 35.075 A 0.5 0.5 0 0 1 16.025 35.575 L 3.025 35.575 A 0.5 0.5 0 0 1 2.525 35.075 L 2.525 22.075 A 0.5 0.5 0 0 1 3.025 21.575 Z M 22.075 21.575 L 35.075 21.575 A 0.5 0.5 0 0 1 35.575 22.075 L 35.575 35.075 A 0.5 0.5 0 0 1 35.075 35.575 L 22.075 35.575 A 0.5 0.5 0 0 1 21.575 35.075 L 21.575 22.075 A 0.5 0.5 0 0 1 22.075 21.575 Z M 41.125 21.575 L 54.125 21.575 A 0.5 0.5 0 0 1 54.625 22.075 L 54.625 35.075 A 0.5 0.5 0 0 1 54.125 35.575 L 41.125 35.575 A 0.5 0.5 0 0 1 40.625 35.075 L 40.625 22.075 A 0.5 0.5 0 0 1 41.125 21.575 Z M 60.175 21.575 L 73.175 21.575 A 0.5 0.5 0 0 1 73.675 22.075 L 73.675 35.075 A 0.5 0.5 0 0 1 73.175 35.575 L 60.175 35.575 A 0.5 0.5 0 0 1 59.675 35.075 L 59.675 22.075 A 0.5 0.5 0 0 1 60.175 21.575 Z M 79.225 21.575 L 92.225 21.575 A 0.5 0.5 0 0 1 92.725 22.075 L 92.725 35.075 A 0.5 0.5 0 0 1 92.225 35.575 L 79.225 35.575 A 0.5 0.5 0 0 1 78.725 35.075 L 78.725 22.075 A 0.5 0.5 0 0 1 79.225 21.575 Z M 60.175 2.525 L 73.175 2.525 A 0.5 0.5 0 0 1 73.675 3.025 L 73.675 16.025 A 0.5 0.5 0 0 1 73.175 16.525 L 60.175 16.525 A 0.5 0.5 0 0 1 59.675 16.025 L 59.675 3.025 A 0.5 0.5 0 0 1 60.175 2.525 Z M 13.637 3.525 L 19.637 3.525 A 0.5 0.5 0 0 1 20.137 4.025 L 20.137 18.025 A 0.5 0.5 0 0 1 19.637 18.525 L 13.637 18.525 A 0.5 0.5 0 0 1 13.137 18.025 L 13.137 4.025 A 0.5 0.5 0 0 1 13.637 3.525 Z M 37.513 3.525 L 43.513 3.525 A 0.5 0.5 0 0 1 44.013 4.025 L 44.013 18.025 A 0.5 0.5 0 0 1 43.513 18.525 L 37.513 18.525 A 0.5 0.5 0 0 1 37.013 18.025 L 37.013 4.025 A 0.5 0.5 0 0 1 37.513 3.525 Z M 51.737 3.525 L 57.737 3.525 A 0.5 0.5 0 0 1 58.237 4.025 L 58.237 18.025 A 0.5 0.5 0 0 1 57.737 18.525 L 51.737 18.525 A 0.5 0.5 0 0 1 51.237 18.025 L 51.237 4.025 A 0.5 0.5 0 0 1 51.737 3.525 Z M 75.613 3.525 L 81.613 3.525 A 0.5 0.5 0 0 1 82.113 4.025 L 82.113 18.025 A 0.5 0.5 0 0 1 81.613 18.525 L 75.613 18.525 A 0.5 0.5 0 0 1 75.113 18.025 L 75.113 4.025 A 0.5 0.5 0 0 1 75.613 3.525 Z" vector-effect="non-scaling-stroke"/></g></svg>